# xmcd
#
# Track frame offsets:
#	150
#	19020
#	37295
#	51414
#	69084
#	81173
#	94334
#	108878
#	125399
#	137636
#	145386
#	157690
#	182759
#
# Disc length: 2640 seconds
#
# Revision: 1
# Processed by: cddbd v1.5.1PL2 Copyright (c) Steve Scherf et al.
# Submitted via: audiograbber 1.83.01
#
DISCID=ad0a4e0d
DTITLE=Pat'Jaune - Ti Catoune
DYEAR=1900
DGENRE=creole
TTITLE0=Mon pied Goyavier
TTITLE1=Ti Catoune
TTITLE2=Le Chouchou
TTITLE3=Nénène
TTITLE4=Si vi souviens
TTITLE5=Zazakel
TTITLE6=Frotte
TTITLE7=Volcan
TTITLE8=Piton de l'eau
TTITLE9=Ti Catoune (instrumental)
TTITLE10=Mon fougère
TTITLE11=Le vieux Léon
TTITLE12=Pot Pourri de Polka
EXTD=
EXTT0=
EXTT1=
EXTT2=
EXTT3=
EXTT4=
EXTT5=
EXTT6=
EXTT7=
EXTT8=
EXTT9=
EXTT10=
EXTT11=
EXTT12=
PLAYORDER=
